<?xml version="1.0" encoding="UTF-8" standalone="no"?>
<!DOCTYPE svg PUBLIC "-//W3C//DTD SVG 1.1//EN" "http://www.w3.org/Graphics/SVG/1.1/DTD/svg11.dtd">
<svg version="1.1" xmlns="http://www.w3.org/2000/svg" xmlns:xlink="http://www.w3.org/1999/xlink" preserveAspectRatio="xMidYMid meet" viewBox="0 0 640 640" width="640" height="640"><defs><path d="M513.56 329.81C513.56 453.1 413.46 553.21 290.16 553.21C166.87 553.21 66.76 453.1 66.76 329.81C66.76 206.51 166.87 106.41 290.16 106.41C413.46 106.41 513.56 206.51 513.56 329.81Z" id="a11kgZJXtA"></path><path d="M225.46 372.95C225.46 416.05 191.28 451.04 149.17 451.04C107.07 451.04 72.88 416.05 72.88 372.95C72.88 329.84 107.07 294.85 149.17 294.85C191.28 294.85 225.46 329.84 225.46 372.95Z" id="a1RDjgY8Bj"></path><path d="M440.55 425.34C440.55 495.91 372.18 553.21 287.98 553.21C203.78 553.21 135.42 495.91 135.42 425.34C135.42 354.77 203.78 297.48 287.98 297.48C372.18 297.48 440.55 354.77 440.55 425.34Z" id="aBVFd9J45"></path><path d="M449.32 235.76C432.94 454.95 376.31 560.63 279.44 552.8C182.57 544.97 115.66 494.49 78.71 401.38L449.32 235.76Z" id="cIwxD2WN7"></path><path d="M543.81 435.19C525.72 488.24 434.89 505.34 341.11 473.35C247.33 441.36 185.89 372.32 203.99 319.26C222.09 266.21 312.92 249.11 406.69 281.1C500.47 313.09 561.91 382.14 543.81 435.19Z" id="c1GtgMdzUq"></path><path d="M403.13 383.21C403.13 462.2 341.28 526.32 265.1 526.32C188.91 526.32 127.06 462.2 127.06 383.21C127.06 304.22 188.91 240.09 265.1 240.09C341.28 240.09 403.13 304.22 403.13 383.21Z" id="a1StmD7ub2"></path><path d="M229.16 383.21C229.16 426.31 194.97 461.3 152.87 461.3C110.76 461.3 76.57 426.31 76.57 383.21C76.57 340.1 110.76 305.11 152.87 305.11C194.97 305.11 229.16 340.1 229.16 383.21Z" id="b61egSDBy"></path><path d="M370.21 350.42C370.21 429.41 308.36 493.54 232.17 493.54C155.99 493.54 94.14 429.41 94.14 350.42C94.14 271.43 155.99 207.3 232.17 207.3C308.36 207.3 370.21 271.43 370.21 350.42Z" id="a30MlJUuhB"></path><path d="M373.9 360.68C373.9 439.67 312.05 503.8 235.87 503.8C159.68 503.8 97.83 439.67 97.83 360.68C97.83 281.69 159.68 217.56 235.87 217.56C312.05 217.56 373.9 281.69 373.9 360.68Z" id="fdPDumLSt"></path><path d="M401.62 254.22C401.62 300.13 357.35 337.41 302.82 337.41C248.29 337.41 204.01 300.13 204.01 254.22C204.01 208.31 248.29 171.04 302.82 171.04C357.35 171.04 401.62 208.31 401.62 254.22Z" id="blUE2UXaX"></path><path d="M404.63 264.48C404.63 310.39 360.36 347.67 305.83 347.67C251.3 347.67 207.03 310.39 207.03 264.48C207.03 218.57 251.3 181.3 305.83 181.3C360.36 181.3 404.63 218.57 404.63 264.48Z" id="b1SfHo63rQ"></path><path d="M522.82 259.35C522.82 305.26 478.54 342.54 424.01 342.54C369.48 342.54 325.21 305.26 325.21 259.35C325.21 213.44 369.48 176.17 424.01 176.17C478.54 176.17 522.82 213.44 522.82 259.35Z" id="dHb6d0zqr"></path><path d="M518.56 267.24C518.56 313.15 474.29 350.42 419.76 350.42C365.23 350.42 320.95 313.15 320.95 267.24C320.95 221.33 365.23 184.06 419.76 184.06C474.29 184.06 518.56 221.33 518.56 267.24Z" id="d4h6pXgc0i"></path><path d="M477.6 391.2C477.6 404.83 470.11 415.9 460.89 415.9C451.67 415.9 444.18 404.83 444.18 391.2C444.18 377.56 451.67 366.5 460.89 366.5C470.11 366.5 477.6 377.56 477.6 391.2Z" id="dBz2FGiiM"></path><path d="M473.97 396.28C473.97 407.11 468.76 415.9 462.34 415.9C455.93 415.9 450.72 407.11 450.72 396.28C450.72 385.46 455.93 376.67 462.34 376.67C468.76 376.67 473.97 385.46 473.97 396.28Z" id="a1tJc5kaEg"></path><path d="M473.23 405.06C473.23 408.01 470.79 410.4 467.78 410.4C464.78 410.4 462.34 408.01 462.34 405.06C462.34 402.12 464.78 399.72 467.78 399.72C470.79 399.72 473.23 402.12 473.23 405.06Z" id="carlmxqhi"></path><path d="" id="e4jnfmOxWn"></path><path d="" id="e2W787bq12"></path></defs><g><g><g><use xlink:href="#a11kgZJXtA" opacity="1" fill="#cf515b" fill-opacity="1"></use></g><g><use xlink:href="#a1RDjgY8Bj" opacity="1" fill="#cfd7d2" fill-opacity="1"></use></g><g><use xlink:href="#aBVFd9J45" opacity="1" fill="#e6ece8" fill-opacity="1"></use></g><g><use xlink:href="#cIwxD2WN7" opacity="1" fill="#e6ece8" fill-opacity="1"></use><g><use xlink:href="#cIwxD2WN7" opacity="1" fill-opacity="0" stroke="#e6ece8" stroke-width="1" stroke-opacity="1"></use></g></g><g><use xlink:href="#c1GtgMdzUq" opacity="1" fill="#323633" fill-opacity="1"></use></g><g><use xlink:href="#a1StmD7ub2" opacity="1" fill="#e6ece8" fill-opacity="1"></use></g><g><use xlink:href="#b61egSDBy" opacity="1" fill="#e6ece8" fill-opacity="1"></use></g><g><use xlink:href="#a30MlJUuhB" opacity="1" fill="#cfd7d2" fill-opacity="1"></use></g><g><use xlink:href="#fdPDumLSt" opacity="1" fill="#e6ece8" fill-opacity="1"></use></g><g><use xlink:href="#blUE2UXaX" opacity="1" fill="#cfd7d2" fill-opacity="1"></use></g><g><use xlink:href="#b1SfHo63rQ" opacity="1" fill="#e6ece8" fill-opacity="1"></use></g><g><use xlink:href="#dHb6d0zqr" opacity="1" fill="#cfd7d2" fill-opacity="1"></use></g><g><use xlink:href="#d4h6pXgc0i" opacity="1" fill="#e6ece8" fill-opacity="1"></use></g><g><use xlink:href="#dBz2FGiiM" opacity="1" fill="#e6ece8" fill-opacity="1"></use></g><g><use xlink:href="#a1tJc5kaEg" opacity="1" fill="#212121" fill-opacity="1"></use></g><g><use xlink:href="#carlmxqhi" opacity="1" fill="#ffffff" fill-opacity="1"></use></g><g><g><use xlink:href="#e4jnfmOxWn" opacity="1" fill-opacity="0" stroke="#000000" stroke-width="1" stroke-opacity="1"></use></g></g><g><g><use xlink:href="#e2W787bq12" opacity="1" fill-opacity="0" stroke="#000000" stroke-width="1" stroke-opacity="1"></use></g></g></g></g></svg>